<?xml version="1.0" encoding="UTF-8"?>
<svg id="Layer_2" data-name="Layer 2" xmlns="http://www.w3.org/2000/svg" viewBox="0 0 897.62 182.9">
  <defs>
    <style>
      .cls-1 {
        fill: #6bebcb;
      }

      .cls-2 {
        fill: #e0fff4;
      }
    </style>
  </defs>
  <g id="Layer_1-2" data-name="Layer 1">
    <g>
      <g>
        <path class="cls-2" d="M889.23,74.54c5.49,5.49,8.38,14.31,8.38,26.74v40.33h-20.38v-39.18c0-12.72-5.06-19.23-15.03-19.23-5.35,0-9.4,1.88-12.29,5.35-2.89,3.61-4.34,8.67-4.34,15.03v38.02h-20.38v-74.31h17.78l1.88,9.25c2.6-3.18,5.64-5.64,9.4-7.37,3.61-1.73,8.1-2.75,13.59-2.75,8.67,0,15.76,2.75,21.4,8.1Z"/>
        <path class="cls-2" d="M788.24,119.93c3.32-3.9,5.06-9.11,5.06-15.47s-1.74-11.42-5.06-15.47c-3.32-3.9-7.81-5.93-13.44-5.93s-10.12,2.02-13.44,5.93c-3.32,4.05-4.91,9.11-4.91,15.47s1.59,11.57,4.91,15.47c3.33,4.05,7.81,5.93,13.44,5.93s10.12-1.88,13.44-5.93ZM754.12,137.86c-5.93-3.18-10.55-7.66-13.73-13.44-3.18-5.78-4.77-12.43-4.77-19.95s1.59-14.17,4.77-19.95c3.18-5.78,7.81-10.12,13.73-13.3,5.93-3.18,12.87-4.77,20.67-4.77s14.6,1.59,20.53,4.77c5.93,3.18,10.55,7.52,13.73,13.3,3.18,5.78,4.91,12.43,4.91,19.95s-1.73,14.31-4.91,20.09c-3.18,5.78-7.81,10.12-13.73,13.3-5.93,3.18-12.72,4.63-20.53,4.63s-14.75-1.45-20.67-4.63Z"/>
        <path class="cls-2" d="M731.8,67.3v18.5h-8.1c-5.78,0-10.12,1.73-12.72,5.2-2.75,3.47-4.05,8.24-4.05,14.17v36.43h-20.38v-74.31h18.5l1.88,11.13c2.17-3.61,4.92-6.36,8.24-8.24,3.18-1.88,7.66-2.89,13.16-2.89h3.47Z"/>
        <path class="cls-2" d="M639.79,84.51h-12.29v-17.2h12.29v-20.82h20.38v20.82h16.91v17.2h-16.91v32.53c0,2.6.43,4.48,1.59,5.64,1.16,1.16,3.04,1.73,5.64,1.73h10.55v17.2h-16.91c-14.17,0-21.25-7.08-21.25-21.25v-35.85Z"/>
        <path class="cls-2" d="M599.96,109.52h-14.89c-4.34,0-7.66.87-9.97,2.6-2.31,1.73-3.47,4.05-3.47,7.08,0,2.6.87,4.77,2.89,6.22,2.02,1.59,4.63,2.31,8.1,2.31,5.2,0,9.4-1.45,12.58-4.48,3.04-3.04,4.63-7.08,4.77-12.29v-1.45ZM627.14,124.41v17.2h-10.41c-9.4,0-14.02-4.05-13.73-12.14-2.75,4.34-6.07,7.52-9.97,9.69-4.05,2.31-8.82,3.33-14.31,3.33-8.38,0-15.03-1.88-20.09-5.64-5.06-3.76-7.52-9.25-7.52-16.19,0-7.81,2.89-13.88,8.67-18.22,5.78-4.34,14.31-6.51,25.44-6.51h14.75v-3.61c0-3.33-1.3-5.93-3.76-7.95-2.6-2.02-5.93-3.04-10.12-3.04-3.76,0-6.94.87-9.25,2.46-2.46,1.73-3.9,3.9-4.34,6.65h-19.66c.58-7.52,4.05-13.44,10.12-17.64,6.07-4.19,14.02-6.36,24.14-6.36s18.5,2.31,24.29,6.94c5.78,4.63,8.67,11.42,8.67,20.09v26.17c0,1.88.29,3.18,1.16,3.76.72.72,1.88,1.01,3.61,1.01h2.31Z"/>
        <path class="cls-2" d="M533.67,74.39c4.92,5.35,7.52,14.17,7.52,26.46v40.91h-20.38v-41.64c0-11.28-4.34-16.91-12.87-16.91-4.48,0-8.1,1.59-10.7,4.77-2.75,3.18-4.05,7.52-4.05,13.01v40.77h-20.38v-41.64c0-11.28-4.34-16.91-13.01-16.91-4.48,0-8.1,1.73-10.7,4.92-2.6,3.18-3.9,7.52-3.9,13.01v40.62h-20.38v-74.45h17.78l1.88,9.25c2.46-3.18,5.49-5.64,8.96-7.37,3.47-1.73,7.81-2.6,13.01-2.75,10.55,0,17.93,4.19,22.12,12.58,2.6-4.05,6.22-7.08,10.55-9.25s9.4-3.33,15.03-3.33c7.95,0,14.46,2.75,19.52,7.95Z"/>
        <path class="cls-2" d="M387.86,119.93c3.32-3.9,5.06-9.11,5.06-15.47s-1.74-11.42-5.06-15.47c-3.32-3.9-7.81-5.93-13.44-5.93s-10.12,2.02-13.44,5.93c-3.32,4.05-4.91,9.11-4.91,15.47s1.59,11.57,4.91,15.47c3.33,4.05,7.81,5.93,13.44,5.93s10.12-1.88,13.44-5.93ZM353.74,137.86c-5.93-3.18-10.55-7.66-13.73-13.44-3.18-5.78-4.77-12.43-4.77-19.95s1.59-14.17,4.77-19.95c3.18-5.78,7.81-10.12,13.73-13.3,5.93-3.18,12.87-4.77,20.67-4.77s14.6,1.59,20.53,4.77c5.93,3.18,10.55,7.52,13.73,13.3,3.18,5.78,4.91,12.43,4.91,19.95s-1.73,14.31-4.91,20.09c-3.18,5.78-7.81,10.12-13.73,13.3-5.93,3.18-12.72,4.63-20.53,4.63s-14.75-1.45-20.67-4.63Z"/>
        <polygon class="cls-2" points="238.5 141.62 238.5 40.42 258.16 40.42 301.09 104.18 301.09 40.42 322.49 40.42 322.49 141.62 302.68 141.62 259.75 77.86 259.75 141.62 238.5 141.62"/>
      </g>
      <path class="cls-1" d="M146.8,0H0v146.82l36.08,36.08h146.82V36.1L146.8,0ZM40.11,124.56V24.87h19.62l44.54,44.54,4.54,4.54h-34.74l-.02,84.08-33.94-33.48ZM142.78,158.04h-19.62l-44.54-44.54-4.54-4.54h34.74l.02-84.08,33.94,33.48v99.69Z"/>
    </g>
  </g>
</svg>